<svg width="110" height="135" viewBox="0 0 110 135" fill="none" xmlns="http://www.w3.org/2000/svg">
<path d="M0.724813 130.213V129.125L5.28481 124.725C5.69015 124.341 5.98881 124.005 6.18081 123.717C6.38348 123.418 6.51681 123.146 6.58081 122.901C6.65548 122.645 6.69281 122.4 6.69281 122.165C6.69281 121.589 6.49015 121.136 6.08481 120.805C5.67948 120.474 5.08748 120.309 4.30881 120.309C3.71148 120.309 3.17281 120.41 2.69281 120.613C2.21281 120.805 1.79681 121.109 1.44481 121.525L0.356813 120.581C0.783479 120.037 1.35415 119.621 2.06881 119.333C2.79415 119.034 3.58881 118.885 4.45281 118.885C5.23148 118.885 5.90881 119.013 6.48481 119.269C7.06081 119.514 7.50348 119.872 7.81281 120.341C8.13281 120.81 8.29281 121.365 8.29281 122.005C8.29281 122.368 8.24481 122.725 8.14881 123.077C8.05281 123.429 7.87148 123.802 7.60481 124.197C7.33815 124.592 6.95415 125.034 6.45281 125.525L2.38881 129.445L2.00481 128.821H8.77281V130.213H0.724813ZM9.61581 127.461V126.341L15.3438 119.013H17.0718L11.3918 126.341L10.5758 126.085H19.5198V127.461H9.61581ZM15.8398 130.213V127.461L15.8878 126.085V123.653H17.3918V130.213H15.8398ZM19.7318 130.213L23.3798 125.477L23.3638 126.261L19.8918 121.733H21.6038L24.2598 125.221H23.6038L26.2598 121.733H27.9398L24.4198 126.293L24.4358 125.477L28.1158 130.213H26.3718L23.5718 126.501L24.1958 126.597L21.4438 130.213H19.7318ZM30.9306 130.213L35.6826 119.685L36.0986 120.405H29.4426L30.2426 119.621V122.405H28.7066V119.013H37.1546V120.101L32.6266 130.213H30.9306ZM51.7979 119.013H53.3979V130.213H51.7979V119.013ZM45.3659 130.213H43.7659V119.013H45.3659V130.213ZM51.9419 125.221H45.2059V123.829H51.9419V125.221ZM60.3023 130.309C59.3956 130.309 58.5956 130.122 57.9023 129.749C57.2196 129.376 56.6863 128.864 56.3023 128.213C55.929 127.562 55.7423 126.816 55.7423 125.973C55.7423 125.13 55.9236 124.384 56.2863 123.733C56.6596 123.082 57.1663 122.576 57.8063 122.213C58.457 121.84 59.1876 121.653 59.9983 121.653C60.8196 121.653 61.545 121.834 62.1743 122.197C62.8036 122.56 63.2943 123.072 63.6463 123.733C64.009 124.384 64.1903 125.146 64.1903 126.021C64.1903 126.085 64.185 126.16 64.1743 126.245C64.1743 126.33 64.169 126.41 64.1583 126.485H56.9423V125.381H63.3583L62.7343 125.765C62.745 125.221 62.633 124.736 62.3983 124.309C62.1636 123.882 61.8383 123.552 61.4223 123.317C61.017 123.072 60.5423 122.949 59.9983 122.949C59.465 122.949 58.9903 123.072 58.5743 123.317C58.1583 123.552 57.833 123.888 57.5983 124.325C57.3636 124.752 57.2463 125.242 57.2463 125.797V126.053C57.2463 126.618 57.3743 127.125 57.6303 127.573C57.897 128.01 58.265 128.352 58.7343 128.597C59.2036 128.842 59.7423 128.965 60.3503 128.965C60.8516 128.965 61.305 128.88 61.7103 128.709C62.1263 128.538 62.489 128.282 62.7983 127.941L63.6463 128.933C63.2623 129.381 62.7823 129.722 62.2063 129.957C61.641 130.192 61.0063 130.309 60.3023 130.309ZM66.3232 130.213V118.341H67.8592V130.213H66.3232ZM75.2879 130.309C74.5839 130.309 73.9386 130.149 73.3519 129.829C72.7759 129.498 72.3119 129.013 71.9599 128.373C71.6186 127.733 71.4479 126.933 71.4479 125.973C71.4479 125.013 71.6133 124.213 71.9439 123.573C72.2853 122.933 72.7439 122.453 73.3199 122.133C73.9066 121.813 74.5626 121.653 75.2879 121.653C76.1199 121.653 76.8559 121.834 77.4959 122.197C78.1359 122.56 78.6426 123.066 79.0159 123.717C79.3893 124.357 79.5759 125.109 79.5759 125.973C79.5759 126.837 79.3893 127.594 79.0159 128.245C78.6426 128.896 78.1359 129.402 77.4959 129.765C76.8559 130.128 76.1199 130.309 75.2879 130.309ZM70.7919 133.317V121.733H72.2639V124.021L72.1679 125.989L72.3279 127.957V133.317H70.7919ZM75.1599 128.965C75.7039 128.965 76.1893 128.842 76.6159 128.597C77.0533 128.352 77.3946 128.005 77.6399 127.557C77.8959 127.098 78.0239 126.57 78.0239 125.973C78.0239 125.365 77.8959 124.842 77.6399 124.405C77.3946 123.957 77.0533 123.61 76.6159 123.365C76.1893 123.12 75.7039 122.997 75.1599 122.997C74.6266 122.997 74.1413 123.12 73.7039 123.365C73.2773 123.61 72.9359 123.957 72.6799 124.405C72.4346 124.842 72.3119 125.365 72.3119 125.973C72.3119 126.57 72.4346 127.098 72.6799 127.557C72.9359 128.005 73.2773 128.352 73.7039 128.597C74.1413 128.842 74.6266 128.965 75.1599 128.965ZM81.6982 130.213V118.341H83.2342V130.213H81.6982ZM86.1669 130.213V121.733H87.7029V130.213H86.1669ZM86.9349 120.101C86.6363 120.101 86.3856 120.005 86.1829 119.813C85.9909 119.621 85.8949 119.386 85.8949 119.109C85.8949 118.821 85.9909 118.581 86.1829 118.389C86.3856 118.197 86.6363 118.101 86.9349 118.101C87.2336 118.101 87.4789 118.197 87.6709 118.389C87.8736 118.57 87.9749 118.8 87.9749 119.077C87.9749 119.365 87.8789 119.61 87.6869 119.813C87.4949 120.005 87.2443 120.101 86.9349 120.101ZM95.1637 121.653C95.857 121.653 96.465 121.786 96.9877 122.053C97.521 122.32 97.937 122.725 98.2357 123.269C98.5344 123.813 98.6837 124.501 98.6837 125.333V130.213H97.1477V125.509C97.1477 124.688 96.945 124.069 96.5397 123.653C96.145 123.237 95.585 123.029 94.8597 123.029C94.3157 123.029 93.841 123.136 93.4357 123.349C93.0304 123.562 92.7157 123.877 92.4917 124.293C92.2784 124.709 92.1717 125.226 92.1717 125.845V130.213H90.6357V121.733H92.1077V124.021L91.8677 123.413C92.145 122.858 92.5717 122.426 93.1477 122.117C93.7237 121.808 94.3957 121.653 95.1637 121.653ZM105.302 130.309C104.396 130.309 103.596 130.122 102.902 129.749C102.22 129.376 101.686 128.864 101.302 128.213C100.929 127.562 100.742 126.816 100.742 125.973C100.742 125.13 100.924 124.384 101.286 123.733C101.66 123.082 102.166 122.576 102.806 122.213C103.457 121.84 104.188 121.653 104.998 121.653C105.82 121.653 106.545 121.834 107.174 122.197C107.804 122.56 108.294 123.072 108.646 123.733C109.009 124.384 109.19 125.146 109.19 126.021C109.19 126.085 109.185 126.16 109.174 126.245C109.174 126.33 109.169 126.41 109.158 126.485H101.942V125.381H108.358L107.734 125.765C107.745 125.221 107.633 124.736 107.398 124.309C107.164 123.882 106.838 123.552 106.422 123.317C106.017 123.072 105.542 122.949 104.998 122.949C104.465 122.949 103.99 123.072 103.574 123.317C103.158 123.552 102.833 123.888 102.598 124.325C102.364 124.752 102.246 125.242 102.246 125.797V126.053C102.246 126.618 102.374 127.125 102.63 127.573C102.897 128.01 103.265 128.352 103.734 128.597C104.204 128.842 104.742 128.965 105.35 128.965C105.852 128.965 106.305 128.88 106.71 128.709C107.126 128.538 107.489 128.282 107.798 127.941L108.646 128.933C108.262 129.381 107.782 129.722 107.206 129.957C106.641 130.192 106.006 130.309 105.302 130.309Z" fill="#1C1C1C"/>
<path d="M79.2047 67.5377C77.9139 63.8424 75.3583 61.5187 71.493 60.7583C68.6396 60.1969 65.7696 59.7208 62.9161 59.1594C62.6348 59.1049 62.1288 59.3015 62.0437 58.7259C61.9681 58.2213 62.3605 58.1124 62.656 57.9181C63.3984 57.4278 64.2187 56.9635 64.7081 56.2458C65.7554 54.7108 67.1502 54.4455 68.8831 54.5237C71.5545 54.6445 73.3867 52.7092 73.3914 50.0112C73.3961 44.4185 73.3938 38.8258 73.3938 33.2332C73.3938 31.883 73.2496 30.547 72.9375 29.2323C70.6278 19.4706 61.8522 13.5131 51.9277 14.9723C43.3673 16.2301 36.5351 24.0755 36.4784 32.7357C36.4571 36.0923 36.4713 39.4465 36.4713 42.803C36.4736 45.7047 37.7999 47.6306 40.5068 48.6065C40.8803 48.7415 41.0316 48.9192 41.1238 49.3005C42.0198 53.0029 44.1049 55.8739 47.2634 57.9679C47.5873 58.1834 47.9182 58.3469 47.8095 58.8088C47.7078 59.2375 47.2941 59.1096 47.0412 59.157C44.4075 59.6616 41.7716 60.1614 39.1261 60.5901C34.7266 61.3031 31.8329 63.7406 30.4759 68.002C30.3742 68.3218 30.3388 68.6747 30.0362 69.004C28.5563 67.5164 27.0858 66.0407 25.6224 64.5602C24.646 63.5724 24.6531 62.9399 25.6555 61.9332C27.2324 60.3485 28.8021 58.7567 30.4003 57.1957C30.7974 56.8096 30.9085 56.5869 30.4452 56.1297C27.2253 52.9485 24.029 49.7411 20.8493 46.5196C20.4663 46.1311 20.2866 46.1596 19.9249 46.5267C18.0218 48.4715 16.0904 50.3925 14.1636 52.3136C12.6884 53.787 11.7333 55.5375 11.296 57.5818C11.2298 57.8921 11.3834 58.2806 11.0477 58.5222C11.0477 59.1523 11.0477 59.7847 11.0477 60.4148C11.0997 60.474 11.1919 60.5285 11.199 60.5901C11.4733 63.1934 12.7333 65.2613 14.5631 67.0687C17.8256 70.2879 21.0431 73.5544 24.2843 76.7949C27.4262 79.9335 30.4995 83.1432 33.7431 86.1729C37.268 89.4631 42.9134 89.5176 46.5305 86.3932C49.001 84.2589 51.358 81.9967 53.7788 79.8056C54.1216 79.4977 54.0791 79.3058 53.7741 79.0215C53.2115 78.4957 52.6772 77.9366 52.0176 77.2805C52.488 77.2805 52.7457 77.2805 53.0034 77.2805C62.5355 77.2805 72.0675 77.2734 81.5972 77.2971C82.349 77.2994 82.4175 77.1336 82.1835 76.4562C81.1622 73.4928 80.2379 70.4963 79.2047 67.5377ZM68.0556 51.6101C68.3039 50.7147 68.4575 49.7885 68.8287 48.9618C69.0746 48.4146 69.876 48.5331 70.4363 48.0972C70.7058 51.2619 70.3654 51.7593 68.0556 51.6101ZM69.1053 45.5058C69.1053 44.6838 69.1053 43.9305 69.1053 43.1796C69.1053 42.4145 69.1053 41.6494 69.1053 40.7611C70.9469 42.1089 70.9469 44.2977 69.1053 45.5058ZM40.7195 45.5389C39.8968 45.0249 39.4689 44.3853 39.3767 43.5373C39.2538 42.4027 39.6179 41.4765 40.7195 40.7706C40.7195 42.4003 40.7195 43.8855 40.7195 45.5389ZM41.3579 36.007C40.9749 35.9951 40.7266 36.0117 40.7148 36.5305C40.6865 37.6888 40.6534 37.6865 39.3815 38.0986C39.3673 34.1191 38.9867 30.1514 40.8756 26.4277C42.5281 23.173 44.93 20.6953 48.2114 19.12C57.7529 14.5388 68.9374 20.636 70.3441 31.1581C70.6538 33.47 70.4008 35.7891 70.5048 38.1152C69.5403 37.9375 68.8382 37.6272 69.0958 36.4665C69.2235 35.8886 68.7412 36.0046 68.4268 36.0141C65.7861 36.1017 63.266 35.6233 60.8711 34.4744C58.8806 33.5174 57.2257 32.1317 55.7103 30.5517C54.9349 29.7416 54.9041 29.7392 54.1547 30.5328C52.0554 32.7499 49.6558 34.4815 46.6913 35.3627C44.9442 35.8814 43.1664 36.0591 41.3579 36.007ZM43.7645 47.929C43.4714 46.4604 43.6085 44.9586 43.5967 43.471C43.5872 42.2108 43.6439 40.9459 43.5754 39.6881C43.5376 38.9964 43.8165 38.814 44.4217 38.7477C47.852 38.3734 50.897 37.0516 53.6228 34.9458C54.0696 34.5999 54.4313 33.913 54.9467 33.9604C55.3935 34.0006 55.7812 34.5999 56.2091 34.9316C58.9255 37.0445 61.9704 38.3734 65.4031 38.7477C65.9965 38.8116 66.2636 38.9893 66.2447 39.681C66.1856 41.9147 66.2164 44.1508 66.2116 46.387C66.2093 47.9882 65.7601 49.4782 65.1218 50.9303C64.8901 51.4585 64.5922 51.6788 63.9752 51.6693C61.2305 51.629 58.4834 51.667 55.7363 51.6385C55.1122 51.6314 54.838 51.7238 54.8545 52.4581C54.8971 54.5545 54.8592 54.5569 56.9325 54.5569C58.6631 54.5569 60.396 54.5569 62.3227 54.5569C59.6442 56.7859 56.734 57.7002 53.5235 57.2525C48.3485 56.5277 44.7929 53.0598 43.7645 47.929ZM58.968 59.6402C57.5401 61.0733 56.2115 62.4093 54.942 63.6837C53.6654 62.4022 52.3249 61.0544 50.9537 59.6781C53.5826 60.4053 56.228 60.4385 58.968 59.6402ZM19.3221 51.179C20.393 50.1557 20.367 50.1272 21.4025 51.1648C23.0597 52.8253 24.7193 54.4858 26.3742 56.1487C26.5302 56.3074 26.743 56.4258 26.8045 56.7432C26.3813 57.153 25.977 57.6623 25.464 57.9987C25.1259 58.219 24.9297 57.7144 24.717 57.5036C22.925 55.7341 21.159 53.9386 19.3646 52.1739C18.9982 51.8138 18.8776 51.603 19.3221 51.179ZM45.7149 83.2924C44.1971 84.799 42.4666 85.8033 40.443 85.7512C38.294 85.7796 36.6178 85.0666 35.2467 83.6975C28.8399 77.3018 22.4309 70.9109 16.0667 64.4725C13.0974 61.4666 13.3527 56.8096 16.5159 54.0097C16.7499 53.8036 16.8658 53.7349 17.114 53.986C19.0691 55.9615 21.0313 57.9276 23.0077 59.8795C23.2961 60.1637 23.185 60.3106 22.9912 60.5759C21.5585 62.5278 21.6956 64.6834 23.3954 66.3983C26.7004 69.7359 30.022 73.0617 33.353 76.3732C35.067 78.0788 37.1781 78.2209 39.1545 76.7665C39.502 76.5106 39.6628 76.5699 39.9228 76.8304C41.8378 78.7633 43.7621 80.6868 45.6912 82.6055C45.9371 82.8518 46.0033 83.0058 45.7149 83.2924ZM49.4573 79.8577C49.1145 80.1135 48.8213 80.4333 48.5022 80.7176C48.4029 80.8076 48.2894 80.881 48.1617 80.9758C48.001 80.8265 47.8733 80.7152 47.7551 80.5968C45.8756 78.7136 44.0033 76.8209 42.1073 74.9543C41.755 74.6085 41.7598 74.4356 42.1238 74.0969C43.4997 72.8153 43.4832 72.8011 44.8165 74.1395C46.3697 75.7005 47.9111 77.2757 49.4951 78.806C49.9419 79.2418 49.9324 79.5024 49.4573 79.8577ZM77.5239 74.3811C68.3393 74.3858 59.1548 74.3787 49.9703 74.4001C49.3391 74.4024 48.9159 74.2082 48.488 73.7676C47.0341 72.2658 45.5329 70.8114 44.0742 69.3119C43.729 68.9566 43.5376 68.9092 43.1451 69.2764C41.3673 70.9369 39.5517 72.5572 37.7479 74.1916C36.7526 75.0941 36.1261 75.0799 35.1757 74.1371C34.3838 73.3507 33.6107 72.5429 32.7998 71.7755C32.4807 71.4722 32.4216 71.1951 32.5681 70.7924C32.8684 69.961 33.1071 69.1082 33.4145 68.2791C34.405 65.6143 36.3176 64.0343 39.1025 63.5203C42.1025 62.9684 45.112 62.4591 48.105 61.8811C48.6015 61.7863 48.8899 61.8882 49.2209 62.2222C50.949 63.9775 52.7103 65.6996 54.4242 67.4667C54.8238 67.8788 55.0365 67.8575 55.4219 67.4595C57.0578 65.7754 58.7505 64.1433 60.377 62.452C60.8617 61.9498 61.2778 61.7769 62.0012 61.9237C65.1005 62.5515 68.2306 63.0418 71.3276 63.679C73.5995 64.148 75.2756 65.5266 76.1385 67.6727C77.0085 69.8283 77.6728 72.0692 78.4246 74.265C78.0889 74.4569 77.8005 74.3811 77.5239 74.3811Z" fill="#1C1C1C"/>
<path d="M98.9261 4.96418C98.9095 2.86308 97.8859 1.45366 95.9473 0.700389C95.848 0.662489 95.718 0.67907 95.7345 0.515625C88.4058 0.515625 81.0748 0.515625 73.746 0.515625C73.72 0.560632 73.7058 0.634064 73.668 0.648276C71.3725 1.56025 70.493 2.83465 70.493 5.27212C70.4907 8.6571 70.5923 12.0468 70.4623 15.4247C70.3465 18.4685 72.4292 20.6573 75.4836 20.4631C76.4908 20.3991 77.5026 20.4536 78.5333 20.4536C78.044 23.3364 77.5782 26.0913 77.0889 28.9741C77.4624 28.7632 77.7106 28.6353 77.9447 28.4885C81.1882 26.4584 84.5003 24.5279 87.6469 22.3604C89.7132 20.9368 91.7983 20.2428 94.3279 20.4109C97.0348 20.591 98.8882 18.6936 98.9213 15.979C98.9686 12.3074 98.9544 8.63578 98.9261 4.96418ZM96.0561 15.7942C96.0537 17.0425 95.5052 17.6774 94.2735 17.5305C91.2475 17.1705 88.6564 17.9972 86.2474 19.8424C84.6705 21.0505 82.888 21.9885 81.018 23.1587C81.3112 21.3703 81.531 19.7572 81.8596 18.1677C81.992 17.5281 81.7438 17.5447 81.2875 17.5471C79.2284 17.5613 77.1669 17.5566 75.1078 17.5518C73.895 17.5495 73.3962 17.0473 73.3962 15.8321C73.3914 12.2482 73.3914 8.66657 73.3962 5.08262C73.3985 3.88165 73.8572 3.40553 75.0368 3.40553C81.4743 3.40079 87.9117 3.40079 94.3492 3.40553C95.5667 3.40553 96.056 3.89349 96.0584 5.12762C96.0655 8.68552 96.0655 12.2387 96.0561 15.7942Z" fill="#1C1C1C"/>
<path d="M15.7736 40.316C16.0833 40.8489 16.3102 40.785 16.7499 40.5126C18.6696 39.3282 20.6129 38.1841 22.5396 37.0091C23.1661 36.6278 24.1969 36.3814 24.2938 35.8011C24.3884 35.2373 23.6318 34.548 23.2985 33.8895C23.0763 33.4513 22.8895 33.4157 22.4734 33.6858C21.4758 34.3324 20.4356 34.9128 19.3055 35.5855C19.3055 35.2894 19.289 35.2018 19.3079 35.126C24.3245 15.7091 44.4501 3.79659 63.8546 8.75206C64.5095 8.91787 65.3984 9.39163 65.7672 9.13343C66.2353 8.80417 66.2518 7.8614 66.5237 7.20762C66.7436 6.67701 66.6254 6.50409 66.0627 6.34302C59.9066 4.57591 53.6748 4.20639 47.41 5.51395C34.0954 8.29252 24.5562 15.9342 18.724 28.2305C17.653 30.4879 16.9107 32.8662 16.2535 35.4647C15.679 34.5172 15.2086 33.7142 14.7121 32.9254C14.3338 32.3237 14.1282 31.343 13.549 31.2104C12.9272 31.0683 12.3078 31.8784 11.6459 32.1911C11.2156 32.3924 11.1447 32.5961 11.4142 33.0343C12.8894 35.4458 14.3528 37.869 15.7736 40.316Z" fill="#1C1C1C"/>
<path d="M97.6518 31.615C95.2617 30.2174 92.8882 28.7938 90.5335 27.337C90.03 27.0243 89.8219 27.0385 89.5146 27.5739C88.3917 29.5305 87.2049 31.4515 86.0512 33.3916C85.6753 34.024 84.9377 34.7749 85.0725 35.2866C85.2096 35.8077 86.2332 36.0754 86.8337 36.5018C87.2498 36.7979 87.4413 36.6984 87.6777 36.2838C88.3562 35.0995 89.0772 33.9411 89.8148 32.7165C91.0324 36.208 91.6683 39.7233 91.7605 43.312C91.978 51.6974 89.6754 59.3391 84.81 66.192C84.4152 66.7463 83.5831 67.3077 83.7273 67.8454C83.881 68.4115 84.7462 68.7692 85.264 69.2572C85.6469 69.6172 85.8597 69.5959 86.193 69.16C88.2238 66.5189 89.9354 63.6929 91.2688 60.6372C94.0111 54.3528 95.1057 47.789 94.4981 40.9574C94.2333 37.9941 93.6589 35.0829 92.5879 31.9703C93.491 32.5057 94.1861 32.9249 94.8858 33.33C95.4958 33.6853 96.2121 34.4007 96.6991 34.2704C97.205 34.1354 97.4651 33.1571 97.8835 32.5862C98.2239 32.1243 98.1507 31.9064 97.6518 31.615Z" fill="#1C1C1C"/>
<path d="M92.3964 6.18169C87.7037 6.20301 83.0086 6.18643 78.3158 6.20301C77.6137 6.20538 76.6799 5.87612 76.2732 6.35698C75.9305 6.76441 76.2141 7.67165 76.1503 8.35149C76.0912 8.98158 76.3442 9.10713 76.9257 9.10002C79.531 9.07159 82.1339 9.08817 84.7391 9.08817C86.8857 9.08817 89.0323 9.08817 91.1789 9.08817C93.2688 9.08817 93.2309 9.08818 93.2759 6.99181C93.2924 6.25512 93.0111 6.17932 92.3964 6.18169Z" fill="#1C1C1C"/>
<path d="M86.8077 11.8644C83.9779 11.8905 81.1457 11.8763 78.3135 11.8763C76.1007 11.8763 76.122 11.8763 76.148 14.1219C76.1551 14.6714 76.3276 14.7922 76.8383 14.7827C78.4955 14.7543 80.1551 14.7709 81.8147 14.7709C83.0157 14.7709 84.2166 14.7709 85.4176 14.7709C87.6068 14.7709 87.5784 14.7709 87.5902 12.5916C87.5926 11.9615 87.3704 11.8597 86.8077 11.8644Z" fill="#1C1C1C"/>
<path d="M91.7936 11.874C90.3799 11.874 90.3799 11.874 90.3799 13.2882C90.3799 14.7758 90.3799 14.7758 91.8267 14.7758C93.2593 14.7758 93.2593 14.7758 93.2593 13.3403C93.2593 11.874 93.2593 11.874 91.7936 11.874Z" fill="#1C1C1C"/>
</svg>
