<svg width="114" height="135" viewBox="0 0 114 135" fill="none" xmlns="http://www.w3.org/2000/svg">
<path d="M2.78213 130.213L7.53413 119.685L7.95013 120.405H1.29413L2.09413 119.621V122.405H0.558125V119.013H9.00613V120.101L4.47813 130.213H2.78213ZM15.6175 130.213V119.013H20.3375C21.5322 119.013 22.5828 119.248 23.4895 119.717C24.4068 120.186 25.1162 120.842 25.6175 121.685C26.1295 122.528 26.3855 123.504 26.3855 124.613C26.3855 125.722 26.1295 126.698 25.6175 127.541C25.1162 128.384 24.4068 129.04 23.4895 129.509C22.5828 129.978 21.5322 130.213 20.3375 130.213H15.6175ZM17.2175 128.821H20.2415C21.1695 128.821 21.9695 128.645 22.6415 128.293C23.3242 127.941 23.8522 127.45 24.2255 126.821C24.5988 126.181 24.7855 125.445 24.7855 124.613C24.7855 123.77 24.5988 123.034 24.2255 122.405C23.8522 121.776 23.3242 121.285 22.6415 120.933C21.9695 120.581 21.1695 120.405 20.2415 120.405H17.2175V128.821ZM33.8763 130.213V128.421L33.7963 128.085V125.029C33.7963 124.378 33.6043 123.877 33.2203 123.525C32.8469 123.162 32.2816 122.981 31.5243 122.981C31.0229 122.981 30.5323 123.066 30.0523 123.237C29.5723 123.397 29.1669 123.616 28.8363 123.893L28.1963 122.741C28.6336 122.389 29.1563 122.122 29.7643 121.941C30.3829 121.749 31.0283 121.653 31.7003 121.653C32.8629 121.653 33.7589 121.936 34.3883 122.501C35.0176 123.066 35.3323 123.93 35.3323 125.093V130.213H33.8763ZM31.0923 130.309C30.4629 130.309 29.9083 130.202 29.4283 129.989C28.9589 129.776 28.5963 129.482 28.3403 129.109C28.0843 128.725 27.9563 128.293 27.9563 127.813C27.9563 127.354 28.0629 126.938 28.2763 126.565C28.5003 126.192 28.8576 125.893 29.3483 125.669C29.8496 125.445 30.5216 125.333 31.3643 125.333H34.0523V126.437H31.4283C30.6603 126.437 30.1429 126.565 29.8763 126.821C29.6096 127.077 29.4763 127.386 29.4763 127.749C29.4763 128.165 29.6416 128.501 29.9723 128.757C30.3029 129.002 30.7616 129.125 31.3483 129.125C31.9243 129.125 32.4256 128.997 32.8523 128.741C33.2896 128.485 33.6043 128.112 33.7963 127.621L34.1003 128.677C33.8976 129.178 33.5403 129.578 33.0283 129.877C32.5163 130.165 31.8709 130.309 31.0923 130.309ZM38.3865 133.413C37.9812 133.413 37.5865 133.344 37.2025 133.205C36.8185 133.077 36.4878 132.885 36.2105 132.629L36.8665 131.477C37.0798 131.68 37.3145 131.834 37.5705 131.941C37.8265 132.048 38.0985 132.101 38.3865 132.101C38.7598 132.101 39.0692 132.005 39.3145 131.813C39.5598 131.621 39.7892 131.28 40.0025 130.789L40.5305 129.621L40.6905 129.429L44.0185 121.733H45.5225L41.4105 131.061C41.1652 131.658 40.8878 132.128 40.5785 132.469C40.2798 132.81 39.9492 133.05 39.5865 133.189C39.2238 133.338 38.8238 133.413 38.3865 133.413ZM40.4025 130.485L36.5305 121.733H38.1305L41.4265 129.285L40.4025 130.485ZM49.2786 130.309C48.5746 130.309 47.9026 130.213 47.2626 130.021C46.6333 129.829 46.1373 129.594 45.7746 129.317L46.4146 128.101C46.7773 128.346 47.2253 128.554 47.7586 128.725C48.292 128.896 48.836 128.981 49.3906 128.981C50.1053 128.981 50.6173 128.88 50.9266 128.677C51.2466 128.474 51.4066 128.192 51.4066 127.829C51.4066 127.562 51.3106 127.354 51.1186 127.205C50.9266 127.056 50.6706 126.944 50.3506 126.869C50.0413 126.794 49.6946 126.73 49.3106 126.677C48.9266 126.613 48.5426 126.538 48.1586 126.453C47.7746 126.357 47.4226 126.229 47.1026 126.069C46.7826 125.898 46.5266 125.669 46.3346 125.381C46.1426 125.082 46.0466 124.688 46.0466 124.197C46.0466 123.685 46.1906 123.237 46.4786 122.853C46.7666 122.469 47.172 122.176 47.6946 121.973C48.228 121.76 48.8573 121.653 49.5826 121.653C50.1373 121.653 50.6973 121.722 51.2626 121.861C51.8386 121.989 52.308 122.176 52.6706 122.421L52.0146 123.637C51.6306 123.381 51.2306 123.205 50.8146 123.109C50.3986 123.013 49.9826 122.965 49.5666 122.965C48.8946 122.965 48.3933 123.077 48.0626 123.301C47.732 123.514 47.5666 123.792 47.5666 124.133C47.5666 124.421 47.6626 124.645 47.8546 124.805C48.0573 124.954 48.3133 125.072 48.6226 125.157C48.9426 125.242 49.2946 125.317 49.6786 125.381C50.0626 125.434 50.4466 125.509 50.8306 125.605C51.2146 125.69 51.5613 125.813 51.8706 125.973C52.1906 126.133 52.4466 126.357 52.6386 126.645C52.8413 126.933 52.9426 127.317 52.9426 127.797C52.9426 128.309 52.7933 128.752 52.4946 129.125C52.196 129.498 51.7746 129.792 51.2306 130.005C50.6866 130.208 50.036 130.309 49.2786 130.309ZM59.3831 130.213V119.013H63.7511C64.7325 119.013 65.5698 119.168 66.2631 119.477C66.9565 119.786 67.4898 120.234 67.8631 120.821C68.2365 121.408 68.4231 122.106 68.4231 122.917C68.4231 123.728 68.2365 124.426 67.8631 125.013C67.4898 125.589 66.9565 126.032 66.2631 126.341C65.5698 126.65 64.7325 126.805 63.7511 126.805H60.2631L60.9831 126.069V130.213H59.3831ZM66.8711 130.213L64.0231 126.149H65.7351L68.6151 130.213H66.8711ZM60.9831 126.229L60.2631 125.445H63.7031C64.7271 125.445 65.5005 125.226 66.0231 124.789C66.5565 124.341 66.8231 123.717 66.8231 122.917C66.8231 122.117 66.5565 121.498 66.0231 121.061C65.5005 120.624 64.7271 120.405 63.7031 120.405H60.2631L60.9831 119.605V126.229ZM74.5601 130.309C73.6535 130.309 72.8535 130.122 72.1601 129.749C71.4775 129.376 70.9441 128.864 70.5601 128.213C70.1868 127.562 70.0001 126.816 70.0001 125.973C70.0001 125.13 70.1815 124.384 70.5441 123.733C70.9175 123.082 71.4241 122.576 72.0641 122.213C72.7148 121.84 73.4455 121.653 74.2561 121.653C75.0775 121.653 75.8028 121.834 76.4321 122.197C77.0615 122.56 77.5521 123.072 77.9041 123.733C78.2668 124.384 78.4481 125.146 78.4481 126.021C78.4481 126.085 78.4428 126.16 78.4321 126.245C78.4321 126.33 78.4268 126.41 78.4161 126.485H71.2001V125.381H77.6161L76.9921 125.765C77.0028 125.221 76.8908 124.736 76.6561 124.309C76.4215 123.882 76.0961 123.552 75.6801 123.317C75.2748 123.072 74.8001 122.949 74.2561 122.949C73.7228 122.949 73.2481 123.072 72.8321 123.317C72.4161 123.552 72.0908 123.888 71.8561 124.325C71.6215 124.752 71.5041 125.242 71.5041 125.797V126.053C71.5041 126.618 71.6321 127.125 71.8881 127.573C72.1548 128.01 72.5228 128.352 72.9921 128.597C73.4615 128.842 74.0001 128.965 74.6081 128.965C75.1095 128.965 75.5628 128.88 75.9681 128.709C76.3841 128.538 76.7468 128.282 77.0561 127.941L77.9041 128.933C77.5201 129.381 77.0401 129.722 76.4641 129.957C75.8988 130.192 75.2641 130.309 74.5601 130.309ZM83.493 130.309C82.6397 130.309 81.9783 130.08 81.509 129.621C81.0397 129.162 80.805 128.506 80.805 127.653V119.877H82.341V127.589C82.341 128.048 82.453 128.4 82.677 128.645C82.9117 128.89 83.2423 129.013 83.669 129.013C84.149 129.013 84.549 128.88 84.869 128.613L85.349 129.717C85.1143 129.92 84.8317 130.069 84.501 130.165C84.181 130.261 83.845 130.309 83.493 130.309ZM79.365 122.997V121.733H84.773V122.997H79.365ZM90.774 130.309C90.0487 130.309 89.4087 130.176 88.854 129.909C88.31 129.642 87.8833 129.237 87.574 128.693C87.2753 128.138 87.126 127.445 87.126 126.613V121.733H88.662V126.437C88.662 127.269 88.8593 127.893 89.254 128.309C89.6593 128.725 90.2247 128.933 90.95 128.933C91.4833 128.933 91.9473 128.826 92.342 128.613C92.7367 128.389 93.0407 128.069 93.254 127.653C93.4673 127.226 93.574 126.714 93.574 126.117V121.733H95.11V130.213H93.654V127.925L93.894 128.533C93.6167 129.098 93.2007 129.536 92.646 129.845C92.0913 130.154 91.4673 130.309 90.774 130.309ZM98.0341 130.213V121.733H99.5061V124.037L99.3621 123.461C99.5968 122.874 99.9915 122.426 100.546 122.117C101.101 121.808 101.783 121.653 102.594 121.653V123.141C102.53 123.13 102.466 123.125 102.402 123.125C102.349 123.125 102.295 123.125 102.242 123.125C101.421 123.125 100.77 123.37 100.29 123.861C99.8101 124.352 99.5701 125.061 99.5701 125.989V130.213H98.0341ZM109.015 121.653C109.709 121.653 110.317 121.786 110.839 122.053C111.373 122.32 111.789 122.725 112.087 123.269C112.386 123.813 112.535 124.501 112.535 125.333V130.213H110.999V125.509C110.999 124.688 110.797 124.069 110.391 123.653C109.997 123.237 109.437 123.029 108.711 123.029C108.167 123.029 107.693 123.136 107.287 123.349C106.882 123.562 106.567 123.877 106.343 124.293C106.13 124.709 106.023 125.226 106.023 125.845V130.213H104.487V121.733H105.959V124.021L105.719 123.413C105.997 122.858 106.423 122.426 106.999 122.117C107.575 121.808 108.247 121.653 109.015 121.653Z" fill="#1C1C1C"/>
<path d="M81.5196 30.039C73.6771 26.2728 65.8446 22.4865 58.0146 18.6977C57.3423 18.3722 56.7325 18.3797 56.0628 18.7278C54.7932 19.3864 53.4936 19.9874 52.2015 20.6059C45.6161 23.7711 39.0282 26.9364 32.4428 30.1041C31.778 30.4246 31.5356 30.968 31.5381 31.6992C31.5531 39.9604 31.5731 48.2241 31.5331 56.4853C31.5281 57.7173 31.9279 58.4159 33.0526 58.9493C40.4127 62.4451 47.7604 65.9709 55.0731 69.5694C56.4201 70.233 57.4673 70.3081 58.8744 69.612C66.2795 65.9409 73.7496 62.395 81.2097 58.8391C82.1594 58.3859 82.5243 57.7674 82.5118 56.7181C82.4668 52.5863 82.4943 48.457 82.4943 44.3251C82.4993 44.3251 82.5018 44.3251 82.5068 44.3251C82.5068 40.1006 82.4968 35.8762 82.5143 31.6492C82.5193 30.8704 82.2369 30.3821 81.5196 30.039ZM56.5376 21.4473C56.82 21.3121 57.0599 21.2019 57.4073 21.3747C60.2164 22.7544 63.0405 24.1067 65.8721 25.4765C65.6597 25.807 65.3373 25.8646 65.0649 25.9973C58.6494 29.0949 52.2315 32.1825 45.826 35.2977C45.2312 35.5857 44.7614 35.5807 44.1765 35.2877C41.6898 34.0406 39.1806 32.8411 36.6789 31.6241C36.489 31.5315 36.3015 31.4313 36.0716 31.3111C42.9294 28.0081 49.7348 24.7277 56.5376 21.4473ZM55.7054 66.9025C51.6866 64.9693 47.7729 63.0862 43.8591 61.2031C40.8901 59.7732 37.9285 58.3283 34.9495 56.9185C34.4271 56.6706 34.2347 56.3751 34.2372 55.7841C34.2597 48.6798 34.2597 41.5756 34.2397 34.4688C34.2372 33.7451 34.3047 33.5173 35.0769 33.8954C41.7323 37.1407 48.4002 40.3536 55.0706 43.5664C55.4454 43.7467 55.7229 43.8719 55.7204 44.4078C55.6979 51.8551 55.7054 59.3049 55.7054 66.9025ZM56.6451 41.2951C53.841 39.9279 51.0319 38.5731 48.0878 37.1458C49.7548 36.3394 51.2993 35.5932 52.8438 34.847C58.0196 32.3553 63.2005 29.8712 68.3663 27.3571C68.9037 27.0966 69.3035 27.1117 69.8309 27.3746C72.5 28.6993 75.1917 29.9764 78.0383 31.3512C74.6393 32.9914 71.4404 34.5364 68.2414 36.079C64.7575 37.7593 61.2711 39.4396 57.7847 41.1173C57.4273 41.2901 57.0874 41.5105 56.6451 41.2951ZM79.3703 56.7582C72.4475 60.0812 65.5297 63.4167 58.6094 66.7447C58.5595 66.7698 58.492 66.7597 58.342 66.7773C58.342 59.2749 58.347 51.8301 58.3295 44.3852C58.3295 43.9595 58.497 43.7817 58.8269 43.624C65.6247 40.3586 72.425 37.0932 79.2129 33.8077C79.7352 33.5548 79.8377 33.645 79.8377 34.1909C79.8277 41.4479 79.8277 48.7049 79.8402 55.9619C79.8377 56.355 79.7377 56.5829 79.3703 56.7582Z" fill="#1C1C1C"/>
<path d="M100.521 38.0622C100.031 34.5564 99.0939 31.1758 97.7743 27.8979C97.427 27.0315 96.7347 26.6884 96.0074 26.9614C95.2926 27.2293 94.9977 27.9831 95.2826 28.832C95.3626 29.0674 95.4751 29.2902 95.565 29.5231C98.919 38.4103 99.2889 47.4277 96.5522 56.5178C91.5863 73.0126 76.9335 84.7019 59.7939 85.8338C51.3716 86.3897 43.4641 84.5316 36.144 80.2796C32.84 78.3589 29.8585 76.0225 27.0444 73.0551C29.9185 73.3631 32.5526 73.6336 35.1843 73.9366C36.2589 74.0618 36.9887 73.6686 37.1062 72.8122C37.2111 72.061 36.6488 71.4124 35.6691 71.3047C31.7954 70.879 27.9191 70.4709 24.0403 70.0902C22.8982 69.9775 22.4608 70.4158 22.3409 71.5476C22.1234 73.566 21.881 75.5818 21.6586 77.6001C21.4487 79.4933 21.2337 81.3889 21.0588 83.2871C20.9763 84.1685 21.5086 84.8271 22.2609 84.8972C22.9657 84.9623 23.5555 84.4415 23.6754 83.5876C23.8129 82.5984 23.9179 81.6043 24.0278 80.6101C24.2453 78.6669 24.4552 76.7262 24.6676 74.783C25.04 74.7905 25.1425 75.0559 25.3049 75.2187C36.4489 86.267 49.7771 90.6367 65.2072 87.8922C77.0934 85.7787 86.5029 79.4933 93.2933 69.5043C99.7462 60.0035 102.115 49.4686 100.521 38.0622Z" fill="#1C1C1C"/>
<path d="M18.3747 59.3C15.2432 50.9762 14.8484 42.5072 17.0927 33.9155C22.1435 14.586 40.7676 1.53442 60.6213 3.36495C69.521 4.18631 77.356 7.49929 84.1388 13.3189C85.151 14.1853 86.1207 15.0994 87.0779 16.1887C86.1407 16.086 85.3384 15.9958 84.5337 15.9082C82.5493 15.6928 80.5674 15.4575 78.5806 15.2696C77.6634 15.1845 77.0436 15.6703 76.9486 16.4366C76.8561 17.1803 77.3959 17.7763 78.3082 17.889C79.6077 18.0517 80.9098 18.1945 82.2119 18.3372C84.7836 18.6227 87.3553 18.9257 89.9295 19.1786C91.1466 19.2963 91.5689 18.9157 91.7114 17.7112C91.9513 15.6953 92.1837 13.677 92.4037 11.6587C92.6161 9.70293 92.8285 7.74469 92.991 5.78395C93.0635 4.91251 92.5661 4.34407 91.8138 4.27145C91.0666 4.19632 90.4818 4.69966 90.3818 5.54606C90.1819 7.25138 90.0044 8.96171 89.8095 10.6695C89.6645 11.9466 89.5046 13.2213 89.3446 14.5434C89.1797 14.4483 89.1172 14.4283 89.0747 14.3882C78.4306 3.50017 65.5572 -1.06488 50.472 0.998532C41.1425 2.27314 33.0026 6.28979 26.3647 12.9483C15.0533 24.2946 10.9721 37.9897 13.9287 53.7633C14.376 56.1523 15.1433 58.4611 16.013 60.7324C16.3954 61.734 17.0602 62.0971 17.8774 61.7866C18.6147 61.5086 18.8796 60.7499 18.5672 59.8284C18.5072 59.6506 18.4422 59.4753 18.3747 59.3Z" fill="#1C1C1C"/>
<path d="M48.4126 47.1824C46.2583 46.1407 44.099 45.114 41.9422 44.0848C41.6623 43.9521 41.3899 43.7893 40.8675 43.8218C40.4377 43.8644 39.9753 44.1824 39.8154 44.7759C39.6229 45.4996 39.9178 46.0605 40.6001 46.3911C42.8094 47.4629 45.0187 48.5346 47.233 49.5964C48.2402 50.0797 49.0049 49.8894 49.3798 49.088C49.7322 48.3293 49.4073 47.6657 48.4126 47.1824Z" fill="#1C1C1C"/>
</svg>
