<svg width="136" height="135" viewBox="0 0 136 135" fill="none" xmlns="http://www.w3.org/2000/svg">
<path d="M6.80631 130.341C5.95298 130.341 5.15831 130.197 4.42231 129.909C3.69698 129.621 3.06765 129.221 2.53431 128.709C2.00098 128.186 1.58498 127.578 1.28631 126.885C0.987646 126.192 0.838313 125.434 0.838313 124.613C0.838313 123.792 0.987646 123.034 1.28631 122.341C1.58498 121.648 2.00098 121.045 2.53431 120.533C3.06765 120.01 3.69698 119.605 4.42231 119.317C5.14765 119.029 5.94231 118.885 6.80631 118.885C7.65965 118.885 8.44365 119.029 9.15831 119.317C9.88365 119.594 10.513 119.994 11.0463 120.517C11.5903 121.029 12.0063 121.632 12.2943 122.325C12.593 123.018 12.7423 123.781 12.7423 124.613C12.7423 125.445 12.593 126.208 12.2943 126.901C12.0063 127.594 11.5903 128.202 11.0463 128.725C10.513 129.237 9.88365 129.637 9.15831 129.925C8.44365 130.202 7.65965 130.341 6.80631 130.341ZM10.4703 132.549C10.097 132.549 9.73965 132.501 9.39831 132.405C9.05698 132.32 8.71565 132.176 8.37431 131.973C8.03298 131.781 7.68098 131.525 7.31831 131.205C6.95565 130.896 6.56098 130.512 6.13431 130.053L7.84631 129.605C8.16631 130 8.47031 130.32 8.75831 130.565C9.05698 130.821 9.35031 131.002 9.63831 131.109C9.92631 131.226 10.209 131.285 10.4863 131.285C11.2863 131.285 11.969 130.965 12.5343 130.325L13.2863 131.237C12.561 132.112 11.6223 132.549 10.4703 132.549ZM6.80631 128.917C7.42498 128.917 7.99565 128.81 8.51831 128.597C9.05165 128.384 9.51031 128.08 9.89431 127.685C10.289 127.29 10.593 126.832 10.8063 126.309C11.0303 125.786 11.1423 125.221 11.1423 124.613C11.1423 123.994 11.0303 123.424 10.8063 122.901C10.593 122.378 10.289 121.925 9.89431 121.541C9.51031 121.146 9.05165 120.842 8.51831 120.629C7.99565 120.416 7.42498 120.309 6.80631 120.309C6.17698 120.309 5.59565 120.416 5.06231 120.629C4.53965 120.842 4.08098 121.146 3.68631 121.541C3.29165 121.925 2.98231 122.378 2.75831 122.901C2.54498 123.424 2.43831 123.994 2.43831 124.613C2.43831 125.221 2.54498 125.786 2.75831 126.309C2.98231 126.832 3.29165 127.29 3.68631 127.685C4.08098 128.08 4.53965 128.384 5.06231 128.597C5.59565 128.81 6.17698 128.917 6.80631 128.917ZM18.5318 130.309C17.8065 130.309 17.1665 130.176 16.6118 129.909C16.0678 129.642 15.6411 129.237 15.3318 128.693C15.0331 128.138 14.8838 127.445 14.8838 126.613V121.733H16.4198V126.437C16.4198 127.269 16.6171 127.893 17.0118 128.309C17.4171 128.725 17.9825 128.933 18.7078 128.933C19.2411 128.933 19.7051 128.826 20.0998 128.613C20.4945 128.389 20.7985 128.069 21.0118 127.653C21.2251 127.226 21.3318 126.714 21.3318 126.117V121.733H22.8678V130.213H21.4118V127.925L21.6518 128.533C21.3745 129.098 20.9585 129.536 20.4038 129.845C19.8491 130.154 19.2251 130.309 18.5318 130.309ZM31.0559 130.213V128.421L30.9759 128.085V125.029C30.9759 124.378 30.7839 123.877 30.3999 123.525C30.0266 123.162 29.4613 122.981 28.7039 122.981C28.2026 122.981 27.7119 123.066 27.2319 123.237C26.7519 123.397 26.3466 123.616 26.0159 123.893L25.3759 122.741C25.8133 122.389 26.3359 122.122 26.9439 121.941C27.5626 121.749 28.2079 121.653 28.8799 121.653C30.0426 121.653 30.9386 121.936 31.5679 122.501C32.1973 123.066 32.5119 123.93 32.5119 125.093V130.213H31.0559ZM28.2719 130.309C27.6426 130.309 27.0879 130.202 26.6079 129.989C26.1386 129.776 25.7759 129.482 25.5199 129.109C25.2639 128.725 25.1359 128.293 25.1359 127.813C25.1359 127.354 25.2426 126.938 25.4559 126.565C25.6799 126.192 26.0373 125.893 26.5279 125.669C27.0293 125.445 27.7013 125.333 28.5439 125.333H31.2319V126.437H28.6079C27.8399 126.437 27.3226 126.565 27.0559 126.821C26.7893 127.077 26.6559 127.386 26.6559 127.749C26.6559 128.165 26.8213 128.501 27.1519 128.757C27.4826 129.002 27.9413 129.125 28.5279 129.125C29.1039 129.125 29.6053 128.997 30.0319 128.741C30.4693 128.485 30.7839 128.112 30.9759 127.621L31.2799 128.677C31.0773 129.178 30.7199 129.578 30.2079 129.877C29.6959 130.165 29.0506 130.309 28.2719 130.309ZM35.3544 130.213V118.341H36.8904V130.213H35.3544ZM39.8232 130.213V121.733H41.3592V130.213H39.8232ZM40.5912 120.101C40.2925 120.101 40.0419 120.005 39.8392 119.813C39.6472 119.621 39.5512 119.386 39.5512 119.109C39.5512 118.821 39.6472 118.581 39.8392 118.389C40.0419 118.197 40.2925 118.101 40.5912 118.101C40.8899 118.101 41.1352 118.197 41.3272 118.389C41.5299 118.57 41.6312 118.8 41.6312 119.077C41.6312 119.365 41.5352 119.61 41.3432 119.813C41.1512 120.005 40.9005 120.101 40.5912 120.101ZM47.2039 130.309C46.3506 130.309 45.6893 130.08 45.2199 129.621C44.7506 129.162 44.5159 128.506 44.5159 127.653V119.877H46.0519V127.589C46.0519 128.048 46.1639 128.4 46.3879 128.645C46.6226 128.89 46.9533 129.013 47.3799 129.013C47.8599 129.013 48.2599 128.88 48.5799 128.613L49.0599 129.717C48.8253 129.92 48.5426 130.069 48.2119 130.165C47.8919 130.261 47.5559 130.309 47.2039 130.309ZM43.0759 122.997V121.733H48.4839V122.997H43.0759ZM51.1287 133.413C50.7234 133.413 50.3287 133.344 49.9447 133.205C49.5607 133.077 49.23 132.885 48.9527 132.629L49.6087 131.477C49.822 131.68 50.0567 131.834 50.3127 131.941C50.5687 132.048 50.8407 132.101 51.1287 132.101C51.502 132.101 51.8114 132.005 52.0567 131.813C52.302 131.621 52.5314 131.28 52.7447 130.789L53.2727 129.621L53.4327 129.429L56.7607 121.733H58.2647L54.1527 131.061C53.9074 131.658 53.63 132.128 53.3207 132.469C53.022 132.81 52.6914 133.05 52.3287 133.189C51.966 133.338 51.566 133.413 51.1287 133.413ZM53.1447 130.485L49.2727 121.733H50.8727L54.1687 129.285L53.1447 130.485ZM64.2191 130.213V119.013H68.5871C69.5684 119.013 70.4057 119.168 71.0991 119.477C71.7924 119.786 72.3257 120.234 72.6991 120.821C73.0724 121.408 73.2591 122.106 73.2591 122.917C73.2591 123.728 73.0724 124.426 72.6991 125.013C72.3257 125.589 71.7924 126.037 71.0991 126.357C70.4057 126.666 69.5684 126.821 68.5871 126.821H65.0991L65.8191 126.069V130.213H64.2191ZM65.8191 126.229L65.0991 125.429H68.5391C69.5631 125.429 70.3364 125.21 70.8591 124.773C71.3924 124.336 71.6591 123.717 71.6591 122.917C71.6591 122.117 71.3924 121.498 70.8591 121.061C70.3364 120.624 69.5631 120.405 68.5391 120.405H65.0991L65.8191 119.605V126.229ZM75.2294 130.213V121.733H76.7014V124.037L76.5574 123.461C76.7921 122.874 77.1868 122.426 77.7414 122.117C78.2961 121.808 78.9788 121.653 79.7894 121.653V123.141C79.7254 123.13 79.6614 123.125 79.5974 123.125C79.5441 123.125 79.4908 123.125 79.4374 123.125C78.6161 123.125 77.9654 123.37 77.4854 123.861C77.0054 124.352 76.7654 125.061 76.7654 125.989V130.213H75.2294ZM85.2364 130.309C84.3831 130.309 83.6258 130.122 82.9644 129.749C82.3031 129.376 81.7804 128.864 81.3964 128.213C81.0124 127.552 80.8204 126.805 80.8204 125.973C80.8204 125.13 81.0124 124.384 81.3964 123.733C81.7804 123.082 82.3031 122.576 82.9644 122.213C83.6258 121.84 84.3831 121.653 85.2364 121.653C86.0791 121.653 86.8311 121.84 87.4924 122.213C88.1644 122.576 88.6871 123.082 89.0604 123.733C89.4444 124.373 89.6364 125.12 89.6364 125.973C89.6364 126.816 89.4444 127.562 89.0604 128.213C88.6871 128.864 88.1644 129.376 87.4924 129.749C86.8311 130.122 86.0791 130.309 85.2364 130.309ZM85.2364 128.965C85.7804 128.965 86.2658 128.842 86.6924 128.597C87.1298 128.352 87.4711 128.005 87.7164 127.557C87.9618 127.098 88.0844 126.57 88.0844 125.973C88.0844 125.365 87.9618 124.842 87.7164 124.405C87.4711 123.957 87.1298 123.61 86.6924 123.365C86.2658 123.12 85.7804 122.997 85.2364 122.997C84.6924 122.997 84.2071 123.12 83.7804 123.365C83.3538 123.61 83.0124 123.957 82.7564 124.405C82.5004 124.842 82.3724 125.365 82.3724 125.973C82.3724 126.57 82.5004 127.098 82.7564 127.557C83.0124 128.005 83.3538 128.352 83.7804 128.597C84.2071 128.842 84.6924 128.965 85.2364 128.965ZM95.2647 130.309C94.4434 130.309 93.7074 130.128 93.0567 129.765C92.4167 129.402 91.91 128.896 91.5367 128.245C91.1634 127.594 90.9767 126.837 90.9767 125.973C90.9767 125.109 91.1634 124.357 91.5367 123.717C91.91 123.066 92.4167 122.56 93.0567 122.197C93.7074 121.834 94.4434 121.653 95.2647 121.653C95.9794 121.653 96.6247 121.813 97.2007 122.133C97.7767 122.453 98.2354 122.933 98.5767 123.573C98.9287 124.213 99.1047 125.013 99.1047 125.973C99.1047 126.933 98.934 127.733 98.5927 128.373C98.262 129.013 97.8087 129.498 97.2327 129.829C96.6567 130.149 96.0007 130.309 95.2647 130.309ZM95.3927 128.965C95.926 128.965 96.406 128.842 96.8327 128.597C97.27 128.352 97.6114 128.005 97.8567 127.557C98.1127 127.098 98.2407 126.57 98.2407 125.973C98.2407 125.365 98.1127 124.842 97.8567 124.405C97.6114 123.957 97.27 123.61 96.8327 123.365C96.406 123.12 95.926 122.997 95.3927 122.997C94.8487 122.997 94.3634 123.12 93.9367 123.365C93.51 123.61 93.1687 123.957 92.9127 124.405C92.6567 124.842 92.5287 125.365 92.5287 125.973C92.5287 126.57 92.6567 127.098 92.9127 127.557C93.1687 128.005 93.51 128.352 93.9367 128.597C94.3634 128.842 94.8487 128.965 95.3927 128.965ZM98.2887 130.213V127.925L98.3847 125.957L98.2247 123.989V118.341H99.7607V130.213H98.2887ZM106.235 130.309C105.51 130.309 104.87 130.176 104.315 129.909C103.771 129.642 103.344 129.237 103.035 128.693C102.736 128.138 102.587 127.445 102.587 126.613V121.733H104.123V126.437C104.123 127.269 104.32 127.893 104.715 128.309C105.12 128.725 105.686 128.933 106.411 128.933C106.944 128.933 107.408 128.826 107.803 128.613C108.198 128.389 108.502 128.069 108.715 127.653C108.928 127.226 109.035 126.714 109.035 126.117V121.733H110.571V130.213H109.115V127.925L109.355 128.533C109.078 129.098 108.662 129.536 108.107 129.845C107.552 130.154 106.928 130.309 106.235 130.309ZM117.191 130.309C116.327 130.309 115.554 130.122 114.871 129.749C114.199 129.376 113.671 128.864 113.287 128.213C112.903 127.562 112.711 126.816 112.711 125.973C112.711 125.13 112.903 124.384 113.287 123.733C113.671 123.082 114.199 122.576 114.871 122.213C115.554 121.84 116.327 121.653 117.191 121.653C117.959 121.653 118.642 121.808 119.239 122.117C119.847 122.416 120.316 122.864 120.647 123.461L119.479 124.213C119.202 123.797 118.86 123.493 118.455 123.301C118.06 123.098 117.634 122.997 117.175 122.997C116.62 122.997 116.124 123.12 115.687 123.365C115.25 123.61 114.903 123.957 114.647 124.405C114.391 124.842 114.263 125.365 114.263 125.973C114.263 126.581 114.391 127.109 114.647 127.557C114.903 128.005 115.25 128.352 115.687 128.597C116.124 128.842 116.62 128.965 117.175 128.965C117.634 128.965 118.06 128.869 118.455 128.677C118.86 128.474 119.202 128.165 119.479 127.749L120.647 128.485C120.316 129.072 119.847 129.525 119.239 129.845C118.642 130.154 117.959 130.309 117.191 130.309ZM125.657 130.309C124.804 130.309 124.142 130.08 123.673 129.621C123.204 129.162 122.969 128.506 122.969 127.653V119.877H124.505V127.589C124.505 128.048 124.617 128.4 124.841 128.645C125.076 128.89 125.406 129.013 125.833 129.013C126.313 129.013 126.713 128.88 127.033 128.613L127.513 129.717C127.278 129.92 126.996 130.069 126.665 130.165C126.345 130.261 126.009 130.309 125.657 130.309ZM121.529 122.997V121.733H126.937V122.997H121.529ZM131.802 130.309C131.098 130.309 130.426 130.213 129.786 130.021C129.157 129.829 128.661 129.594 128.298 129.317L128.938 128.101C129.301 128.346 129.749 128.554 130.282 128.725C130.815 128.896 131.359 128.981 131.914 128.981C132.629 128.981 133.141 128.88 133.45 128.677C133.77 128.474 133.93 128.192 133.93 127.829C133.93 127.562 133.834 127.354 133.642 127.205C133.45 127.056 133.194 126.944 132.874 126.869C132.565 126.794 132.218 126.73 131.834 126.677C131.45 126.613 131.066 126.538 130.682 126.453C130.298 126.357 129.946 126.229 129.626 126.069C129.306 125.898 129.05 125.669 128.858 125.381C128.666 125.082 128.57 124.688 128.57 124.197C128.57 123.685 128.714 123.237 129.002 122.853C129.29 122.469 129.695 122.176 130.218 121.973C130.751 121.76 131.381 121.653 132.106 121.653C132.661 121.653 133.221 121.722 133.786 121.861C134.362 121.989 134.831 122.176 135.194 122.421L134.538 123.637C134.154 123.381 133.754 123.205 133.338 123.109C132.922 123.013 132.506 122.965 132.09 122.965C131.418 122.965 130.917 123.077 130.586 123.301C130.255 123.514 130.09 123.792 130.09 124.133C130.09 124.421 130.186 124.645 130.378 124.805C130.581 124.954 130.837 125.072 131.146 125.157C131.466 125.242 131.818 125.317 132.202 125.381C132.586 125.434 132.97 125.509 133.354 125.605C133.738 125.69 134.085 125.813 134.394 125.973C134.714 126.133 134.97 126.357 135.162 126.645C135.365 126.933 135.466 127.317 135.466 127.797C135.466 128.309 135.317 128.752 135.018 129.125C134.719 129.498 134.298 129.792 133.754 130.005C133.21 130.208 132.559 130.309 131.802 130.309Z" fill="#1C1C1C"/>
<path d="M98.47 28.1377C97.2394 26.5896 95.9865 25.0604 94.7043 23.5553C93.9361 22.6529 93.4531 21.6507 93.3397 20.4762C93.1489 18.5079 92.9289 16.5413 92.7949 14.5695C92.5577 11.0926 89.9711 8.30457 86.5166 7.91366C84.7824 7.71734 83.0465 7.53136 81.3072 7.40909C79.5765 7.28683 78.0899 6.76504 76.6995 5.62502C74.3707 3.71524 72.3443 1.31122 69.2438 0.515625C68.3845 0.515625 67.5252 0.515625 66.6658 0.515625C64.4693 1.10113 62.8658 2.61656 61.1867 4.01833C60.2844 4.77087 59.3769 5.51653 58.4643 6.25358C57.7098 6.86492 56.8436 7.16972 55.8725 7.25755C53.652 7.45903 51.4315 7.67946 49.2144 7.93088C46.2874 8.26324 43.6218 10.9548 43.2987 13.891C43.0563 16.0832 42.826 18.2788 42.6353 20.4762C42.5442 21.5129 42.2073 22.4221 41.5525 23.2195C40.2635 24.7917 38.9745 26.3657 37.6786 27.9345C35.2965 30.819 35.2501 34.3716 37.5875 37.2888C38.8404 38.8542 40.1243 40.3954 41.4064 41.9367C42.0234 42.6789 42.4909 43.4952 42.594 44.4613C42.7968 46.3693 42.9893 48.2808 43.132 50.1958C43.431 54.1996 45.722 56.905 49.4017 57.4578C50.7388 57.6593 52.0966 57.7316 53.5214 57.8693C53.4097 58.1414 53.3478 58.2981 53.2825 58.4514C50.2971 65.6118 47.3169 72.7739 44.3144 79.9274C43.9758 80.7333 43.8658 81.4721 44.4983 82.1558C45.1067 82.8119 45.844 82.7619 46.6381 82.5329C48.9909 81.8544 51.3627 81.2345 53.707 80.5301C54.2673 80.3614 54.5113 80.4647 54.776 80.9572C55.9636 83.1718 57.1959 85.364 58.3938 87.5751C58.8011 88.3277 59.3597 88.7703 60.2448 88.6773C61.1454 88.5826 61.5252 87.9264 61.8346 87.1842C64.9849 79.626 68.1387 72.0696 71.2959 64.5131C71.4025 64.2565 71.4592 63.9775 71.717 63.7916C73.7433 62.3399 75.5789 60.6471 77.5261 59.0972C77.9094 58.7924 78.3391 58.5754 78.7825 58.3687C79.4322 58.0639 79.7604 58.2086 80.0492 58.9129C81.9346 63.5332 83.8767 68.1329 85.7861 72.7446C86.7005 74.9541 87.7248 77.117 88.4896 79.3867C88.4913 79.3867 88.4913 79.3884 88.493 79.3884C88.2593 79.5916 88.0221 79.3918 87.8193 79.3367C86.1419 78.8821 84.4748 78.3965 82.8025 77.9212C80.9652 77.3994 79.9564 77.8127 79.0351 79.4762C78.1638 81.0502 77.3044 82.6328 76.4279 84.205C76.3299 84.3824 76.3076 84.6614 76.0068 84.6717C74.6714 81.4842 73.3343 78.3 72.0075 75.1108C71.7892 74.5855 71.5297 74.1292 70.9075 74.031C70.3885 73.9484 69.9313 74.0724 69.6099 74.5063C69.2473 74.9937 69.3006 75.5086 69.5274 76.0476C71.1034 79.8103 72.6726 83.5765 74.2366 87.3444C74.5425 88.0814 74.9825 88.6256 75.8453 88.6824C76.7476 88.7427 77.2615 88.233 77.6585 87.5011C78.8306 85.3399 80.0337 83.1959 81.1904 81.0278C81.4585 80.525 81.6682 80.339 82.2955 80.5301C84.6398 81.2448 87.0133 81.8579 89.3678 82.5346C90.1619 82.7619 90.8992 82.8102 91.5042 82.1489C92.1366 81.4583 92.0077 80.7023 91.676 79.9102C89.3249 74.3031 86.9875 68.6926 84.6449 63.0821C83.9265 61.36 83.2081 59.6379 82.4691 57.8659C83.7976 57.7385 85.0213 57.6041 86.2467 57.5043C89.3833 57.2494 92.0919 54.9194 92.6093 51.8094C92.9616 49.6947 93.1128 47.5438 93.2933 45.4032C93.405 44.079 93.7625 42.9011 94.6476 41.8713C95.9366 40.3713 97.181 38.8335 98.4218 37.2957C100.689 34.4887 100.713 30.9602 98.47 28.1377ZM88.4896 79.4848C88.4965 79.4573 88.5016 79.4297 88.5085 79.4022C88.536 79.4246 88.5618 79.447 88.5893 79.4693C88.5549 79.4745 88.5223 79.4797 88.4896 79.4848ZM59.9234 84.8525C58.8991 82.9841 57.9435 81.2276 56.9776 79.4779C56.0736 77.8385 55.0132 77.4046 53.2 77.9195C51.2922 78.4619 49.3845 79.0027 47.3462 79.583C48.5492 76.7002 49.7007 73.9449 50.8523 71.1896C52.5675 67.0807 54.2982 62.9787 55.9842 58.8578C56.2369 58.2396 56.4878 58.0829 57.1134 58.3395C57.7338 58.5926 58.2804 58.9319 58.7891 59.3503C60.1589 60.4817 61.5545 61.5821 62.8882 62.7549C64.4075 64.0895 66.1313 64.8661 68.2608 64.8902C65.4713 71.565 62.718 78.1588 59.9234 84.8525ZM96.1893 35.8268C95.177 37.0718 94.218 38.3686 93.118 39.531C91.3632 41.3856 90.6551 43.5882 90.5537 46.08C90.4936 47.5386 90.3441 48.9955 90.1619 50.4455C89.7992 53.3455 88.237 54.73 85.2688 54.9401C83.3009 55.0796 81.3347 55.257 79.3754 55.4929C77.9885 55.6599 76.7631 56.2644 75.6837 57.1702C74.1043 58.4962 72.5059 59.7981 70.9161 61.112C70.0722 61.8095 69.1167 62.2038 67.9462 62.1831C66.8978 62.2193 65.944 61.8112 65.1001 61.1189C63.7475 60.0133 62.3365 58.9698 61.0715 57.7712C59.2325 56.0284 57.0412 55.3999 54.5973 55.2707C52.9714 55.1846 51.349 54.9952 49.7334 54.7851C47.5077 54.4958 46.0331 52.8082 45.8526 50.554C45.679 48.3842 45.4229 46.2212 45.2012 44.0566C45.0689 42.7667 44.5533 41.6302 43.749 40.6314C42.472 39.0471 41.1744 37.4817 39.8785 35.9146C38.0808 33.7379 38.067 31.6645 39.8476 29.4913C41.0455 28.0292 42.2211 26.5465 43.4516 25.1103C44.5739 23.7998 45.1651 22.2913 45.3233 20.5916C45.5089 18.594 45.6979 16.5981 45.8715 14.6005C46.064 12.3704 47.8394 10.6707 50.096 10.4864C52.2616 10.3091 54.4202 10.0594 56.5823 9.83894C57.9916 9.69601 59.205 9.09845 60.2861 8.20641C61.8535 6.91313 63.4227 5.61986 64.9918 4.32486C66.8772 2.76982 69.0273 2.72849 70.9367 4.25769C72.4337 5.45798 73.9255 6.66688 75.3692 7.92916C76.904 9.26893 78.6725 9.88199 80.6851 9.99909C82.567 10.1076 84.4507 10.2884 86.3189 10.5381C88.6391 10.8464 90.0278 12.6494 90.2237 15.3496C90.3664 17.3214 90.5434 19.2914 90.7737 21.2546C90.9456 22.708 91.597 23.972 92.5405 25.0931C93.7573 26.5396 94.9484 28.0086 96.1549 29.4654C97.9148 31.5974 97.932 33.6845 96.1893 35.8268Z" fill="#1C1C1C"/>
<path d="M65.5298 12.3979C64.6876 12.5012 64.2098 13.0368 64.2614 13.8203C64.3112 14.5832 64.8664 15.0361 65.7429 15.0086C66.4011 14.9879 67.0577 14.9431 67.8569 14.9018C68.7437 14.9483 69.768 14.9672 70.7924 15.1188C81.0632 16.6325 87.9276 27.2129 85.1468 37.275C82.5327 46.7378 73.2054 52.2898 63.6255 49.903C55.1438 47.79 49.2006 39.6894 50.4123 30.4401C51.2441 24.0856 54.6987 19.4705 60.4287 16.586C61.4032 16.0952 61.7332 15.4425 61.3929 14.7003C61.0251 13.8996 60.2809 13.7205 59.2738 14.1889C50.9055 18.0842 46.1104 27.6383 47.9752 36.705C50.2095 47.5661 60.5783 54.6731 71.5091 52.8374C82.4845 50.9948 90.0381 40.2284 88.1149 29.1692C86.257 18.4734 76.2939 11.0771 65.5298 12.3979Z" fill="#1C1C1C"/>
<path d="M57.7149 29.9563C56.1836 30.0597 54.8911 30.807 54.2123 32.3672C53.5214 33.955 53.7603 35.4825 54.9702 36.7379C56.8797 38.72 58.8286 40.6642 60.8 42.5843C62.3708 44.1152 64.7375 44.16 66.2929 42.6222C70.5346 38.4307 74.7453 34.2064 78.9269 29.9546C80.032 28.8318 80.3052 27.4146 79.7656 25.894C78.7636 23.0732 75.2987 22.3 73.1263 24.4474C70.0877 27.4507 67.0783 30.4833 64.0758 33.521C63.7028 33.8982 63.4828 33.9963 63.0772 33.5469C62.3296 32.7185 61.5115 31.9505 60.7175 31.1635C59.9286 30.3834 58.9713 29.9977 57.7149 29.9563ZM62.3622 36.5708C63.2645 37.468 63.8678 37.4698 64.7735 36.5622C68.137 33.199 71.4919 29.8289 74.8553 26.4657C75.5978 25.7235 76.3609 25.6632 76.959 26.278C77.2048 26.5311 77.3629 26.8308 77.3337 27.2027C77.3766 27.6746 77.1394 28.0156 76.8232 28.3307C72.774 32.3845 68.7299 36.4434 64.6756 40.4937C63.9125 41.2549 63.2096 41.2497 62.4465 40.4937C60.6367 38.6976 58.8355 36.8929 57.0412 35.0812C56.3658 34.3976 56.3314 33.6175 56.9054 33.0371C57.4606 32.4775 58.2941 32.5171 58.9558 33.168C60.1022 34.2942 61.2262 35.4394 62.3622 36.5708Z" fill="#1C1C1C"/>
</svg>
